# xmcd
#
# Track frame offsets:
#	150
#	18756
#	34722
#	50580
#	64464
#	75121
#	93511
#	108450
#	122597
#	136950
#	148339
#	163439
#	179310
#	195723
#	212657
#	224905
#	239998
#	255394
#	267913
#	281215
#	296144
#
# Disc length: 4145 seconds
#
# Revision: 1
# Processed by: cddbd v1.5.2PL0 Copyright (c) Steve Scherf et al.
# Submitted via: audiograbber 1.83.01
#
DISCID=54102f15
DTITLE=Various Artist - 101 Seventies Hits [CD01)
DYEAR=2009
DGENRE=Country
TTITLE0=Blondie - Heart Of Glass
TTITLE1=Suzi Quattro - She's In Love With You
TTITLE2=Hogsnort Rupert - Pretty Girl
TTITLE3=KC And The Sunshine Band - That's The Way I Like It
TTITLE4=Craig Scott - When Jo Jo Runs
TTITLE5=Hot Chocolate - You Sexy Thing
TTITLE6=The Fortunes - Rreedom Come, Freedom Go
TTITLE7=Helen Reddy - Delta Dawn
TTITLE8=The New Seekers - You Won't Find Another Fool Like Me
TTITLE9=Glen Campbell - Dream Baby (How Long Must I Dream)
TTITLE10=The Hollies - Magic Woman Touch
TTITLE11=Bob Welch - Ebony Eyes
TTITLE12=New World - Sister Jane
TTITLE13=Marshall Hain - Dancing In The City
TTITLE14=Annie Whittle - When You Walk In The Room
TTITLE15=David Dundas - Jeans On
TTITLE16=Deep Purple - Black Night
TTITLE17=Tommy James And The Shondells - Draggin' The Line
TTITLE18=Ike and Tina Turner - Nutbush City Limits
TTITLE19=George Mccrae - Rock Your Baby
TTITLE20=Ray Stevens - The Streak
EXTD=
EXTT0=
EXTT1=
EXTT2=
EXTT3=
EXTT4=
EXTT5=
EXTT6=
EXTT7=
EXTT8=
EXTT9=
EXTT10=
EXTT11=
EXTT12=
EXTT13=
EXTT14=
EXTT15=
EXTT16=
EXTT17=
EXTT18=
EXTT19=
EXTT20=
PLAYORDER=
